<?xml version="1.0" encoding="UTF-8"?>
<!-- Created with Inkscape (http://www.inkscape.org/) -->
<svg width="50mm" height="50mm" version="1.1" viewBox="0 0 50 50" xml:space="preserve" xmlns="http://www.w3.org/2000/svg"><g><path d="m22.854 10.899c-11.619-3.4949-16.102 2.3583-16.102 2.3583s-0.84045 5.8124 4.2869 10.53c3.305 3.041 6.4016 3.2401 7.2707 3.2401 1.3637 0 2.7212-2.1061 2.7212-2.1061" stroke="#000"/><path d="m27.146 10.899c11.619-3.4949 16.102 2.3583 16.102 2.3583s0.84045 5.8124-4.2869 10.53c-3.305 3.041-6.4016 3.2401-7.2707 3.2401-1.3637 0-2.7212-2.1061-2.7212-2.1061" stroke="#000"/><path d="m8.3019 13.945c2.311-2.1359 5.6054-2.6938 8.6465-2.5391 1.2632 0.07643 2.512 0.29244 3.7462 0.56749" fill="none" stroke="#fff"/><path d="m41.699 13.945c-2.311-2.1359-5.6054-2.6938-8.6465-2.5391-1.2632 0.076434-2.512 0.29244-3.7462 0.56749" fill="none" stroke="#fff"/></g><g><path d="m20.728 27.11s-0.67329 2.1495-0.67329 3.4889c0 3.9196 1.7825 5.7658 2.3091 5.5218 0.52658-0.24401-0.85337-1.315-0.85337-4.8692 0-1.2892 0.5429-2.6698 0.5429-2.6698" fill="#fff" stroke="#000"/><path d="m29.272 27.11s0.67329 2.1495 0.67329 3.4889c0 3.9196-1.7825 5.7658-2.3091 5.5218-0.52658-0.24401 0.85337-1.315 0.85337-4.8692 0-1.2892-0.5429-2.6698-0.5429-2.6698" fill="#fff" stroke="#000"/><path d="m29.478 26.996c-1.0423-3.6167-0.76619-5.194-0.76619-5.194s1.475-1.575 2.2386-3.7639c-0.65587-1.8589-0.09905-4.1932-0.09905-4.1932-0.95759-1.6139-2.4302-3.1977-5.8518-3.1977-3.4216 0-4.8942 1.5837-5.8518 3.1977 0 0 0.55682 2.3343-0.09904 4.1932 0.76362 2.1889 2.2386 3.7639 2.2386 3.7639s0.2761 1.5772-0.76619 5.194c1.7351 0.91063 2.0202 2.2094 2.0202 2.2094 0.6027 3.3716 2.2371 5.5789 1.0694 7.1088-1.1677 1.53-3.0071 1.8861-5.3763 1.8322-0.73853-0.01682-1.6447-0.48187-1.6379 0.36283 0.0069 0.8447-0.40484 0.79866-0.30405 1.0355 0.10079 0.23684 0.70395 0.67605 1.5566 0.50879 3.7659-0.73872 5.2967-0.31744 7.3737-2.3505 2.0769-2.0331 1.632-5.126 2.2347-8.4976 0 0 0.28517-1.2988 2.0202-2.2094z"/></g><path d="m20.695 11.974 0.57586 4.2309 1.7631 5.3258" fill="none" stroke="#fff"/><path d="m21.152 19.249s-0.73102 0.12264-0.84076-0.48343c-0.07639-0.42202 0.21449-1.0255 0.02925-1.6346 0 0 0.65245 0.80655 0.87415 1.4718 0.15576 0.46731-0.06266 0.64615-0.06266 0.64615z" fill="#fff"/><path d="m28.848 19.249s0.73102 0.12264 0.84075-0.48342c0.0764-0.42202-0.21448-1.0255-0.02925-1.6345 0 0-0.65245 0.80654-0.87415 1.4718-0.15576 0.46731 0.06266 0.64615 0.06266 0.64615z" fill="#fff"/><g fill="none"><g stroke="#000"><path d="m17.85 40.053c0.56149-0.45544 0.38529-1.9071 0.38529-1.9071"/><path d="m21.988 26.194 0.55397 3.0117z"/><path d="m28.012 26.194-0.55397 3.0117z"/></g><g stroke="#fff"><path d="m29.307 11.974-0.57586 4.2309-1.7631 5.3258"/><path d="m17.9 25.428c0.8035 0.02383 1.4689-0.70356 1.6653-1.4279 0.15434-1.2939 0.31693-2.5873 0.48345-3.8806"/><path d="m32.1 25.428c-0.8035 0.02383-1.4689-0.70356-1.6653-1.4279-0.15434-1.2939-0.31693-2.5873-0.48345-3.8806"/></g><path d="m29.478 26.996c-1.0423-3.6167-0.76619-5.194-0.76619-5.194s1.475-1.575 2.2386-3.7639c-0.65587-1.8589-0.09905-4.1932-0.09905-4.1932-0.95759-1.6139-2.4302-3.1977-5.8518-3.1977-3.4216 0-4.8942 1.5837-5.8518 3.1977 0 0 0.55682 2.3343-0.09904 4.1932 0.76362 2.1889 2.2386 3.7639 2.2386 3.7639s0.2761 1.5772-0.76619 5.194c1.7351 0.91063 2.0202 2.2094 2.0202 2.2094 0.6027 3.3716 2.2371 5.5789 1.0694 7.1088-1.1677 1.53-3.0071 1.8861-5.3763 1.8322-0.73853-0.01682-1.6447-0.48187-1.6379 0.36283 0.0069 0.8447-0.40484 0.79866-0.30405 1.0355 0.10079 0.23684 0.70395 0.67605 1.5566 0.50879 3.7659-0.73872 5.2967-0.31744 7.3737-2.3505 2.0769-2.0331 1.632-5.126 2.2347-8.4976 0 0 0.28517-1.2988 2.0202-2.2094z" stroke="#000"/></g></svg>
